<svg xmlns="http://www.w3.org/2000/svg" width="12" height="12" viewBox="0 0 12 12">
    <defs>
        <linearGradient id="seegq8pppa" x1="50%" x2="50%" y1="0%" y2="100%">
            <stop offset="0%" stop-color="#9D3292"/>
            <stop offset="100%" stop-color="#4435A6"/>
        </linearGradient>
    </defs>
    <g fill="none" fill-rule="evenodd">
        <path fill="url(#seegq8pppa)" fill-rule="nonzero" d="M8.25 3v5.75c0 1.105-.895 2-2 2s-2-.895-2-2V2.5c0-.69.56-1.25 1.25-1.25s1.25.56 1.25 1.25v5.25c0 .275-.225.5-.5.5s-.5-.225-.5-.5V3H5v4.75C5 8.44 5.56 9 6.25 9S7.5 8.44 7.5 7.75V2.5c0-1.105-.895-2-2-2s-2 .895-2 2v6.25c0 1.52 1.23 2.75 2.75 2.75S9 10.27 9 8.75V3h-.75z"/>
        <path d="M0 0L12 0 12 12 0 12z"/>
    </g>
</svg>
