<svg xmlns="http://www.w3.org/2000/svg" width="24" height="24" viewBox="0 0 24 24">
    <g fill="none" fill-rule="evenodd">
        <g fill="#2B01DD">
            <g>
                <path d="M142 35c6.627 0 12-5.373 12-12s-5.373-12-12-12-12 5.373-12 12 5.373 12 12 12zm4.5-9.115v-3.847c0-2.361-1.23-4.338-3.375-4.861v-.523c0-.639-.502-1.154-1.125-1.154s-1.125.515-1.125 1.154v.523c-2.153.523-3.375 2.492-3.375 4.861v3.847l-1.5 1.538v.77h12v-.77l-1.5-1.538zM142 30.5c.825 0 1.5-.692 1.5-1.538h-3c0 .846.667 1.538 1.5 1.538z" transform="translate(-466 -227) translate(336 216)"/>
            </g>
        </g>
    </g>
</svg>
