<svg xmlns="http://www.w3.org/2000/svg" width="24" height="24" viewBox="0 0 24 24">
    <g fill="none" fill-rule="evenodd">
        <g fill="#2AB42A">
            <g>
                <g>
                    <path d="M12 24c6.627 0 12-5.373 12-12S18.627 0 12 0 0 5.373 0 12s5.373 12 12 12zm-1.875-9.375L16.75 8l.875.875-7.5 7.5-3.5-3.5L7.5 12l2.625 2.625zM12 4c4.418 0 8 3.582 8 8s-3.582 8-8 8-8-3.582-8-8 3.582-8 8-8zm0 1c-3.866 0-7 3.134-7 7s3.134 7 7 7 7-3.134 7-7-3.134-7-7-7z" transform="translate(-466 -170) translate(336 160) translate(130 10)"/>
                </g>
            </g>
        </g>
    </g>
</svg>
