<svg xmlns="http://www.w3.org/2000/svg" width="24" height="24" viewBox="0 0 24 24">
    <g fill="none" fill-rule="evenodd">
        <g fill="#EB7AA9">
            <g>
                <path d="M140 35c6.627 0 12-5.373 12-12s-5.373-12-12-12-12 5.373-12 12 5.373 12 12 12zm-2-12.925h-1.333v1.35H138v-1.35zm.017 2.923h-1.333v1.35h1.333v-1.35zm2.667 0h-1.334v1.35h1.334v-1.35zm2.666 0h-1.333v1.35h1.333v-1.35zm-2.683-2.923h-1.334v1.35h1.334v-1.35zm2.666 0H142v1.35h1.333v-1.35zm1.334-4.725H144V16h-1.333v1.35h-5.334V16H136v1.35h-.667c-.74 0-1.326.607-1.326 1.35L134 28.15c0 .742.593 1.35 1.333 1.35h9.334c.733 0 1.333-.608 1.333-1.35V18.7c0-.742-.6-1.35-1.333-1.35zm0 10.8h-9.334v-7.425h9.334v7.425z" transform="translate(-968 -169) translate(840 158)"/>
            </g>
        </g>
    </g>
</svg>
