<svg xmlns="http://www.w3.org/2000/svg" width="24" height="24" viewBox="0 0 24 24">
    <g fill="none" fill-rule="evenodd">
        <g fill="#0C7BF5">
            <g>
                <g>
                    <path d="M12 24C5.373 24 0 18.627 0 12S5.373 0 12 0s12 5.373 12 12-5.373 12-12 12zM8.413 11.193L9.88 9.727c.187-.187.24-.447.167-.68-.247-.747-.38-1.547-.38-2.38C9.667 6.3 9.367 6 9 6H6.667C6.3 6 6 6.3 6 6.667 6 12.927 11.073 18 17.333 18c.367 0 .667-.3.667-.667v-2.326c0-.367-.3-.667-.667-.667-.826 0-1.633-.133-2.38-.38-.233-.08-.5-.02-.68.16l-1.466 1.467c-1.887-.967-3.434-2.507-4.394-4.394z" transform="translate(-802 -227) translate(672 216) translate(130 11)"/>
                </g>
            </g>
        </g>
    </g>
</svg>
