<svg xmlns="http://www.w3.org/2000/svg" xmlns:xlink="http://www.w3.org/1999/xlink" width="174" height="46" viewBox="0 0 174 46">
    <defs>
        <filter id="1m9wnluc6a" width="111.5%" height="143.5%" x="-5.7%" y="-17.4%" filterUnits="objectBoundingBox">
            <feOffset dy="2" in="SourceAlpha" result="shadowOffsetOuter1"/>
            <feGaussianBlur in="shadowOffsetOuter1" result="shadowBlurOuter1" stdDeviation="3"/>
            <feColorMatrix in="shadowBlurOuter1" values="0 0 0 0 0 0 0 0 0 0 0 0 0 0 0 0 0 0 0.3 0"/>
        </filter>
        <rect id="yna1zczvsb" width="174" height="46" x="0" y="0" rx="6"/>
    </defs>
    <g fill="none" fill-rule="evenodd">
        <g>
            <g>
                <g>
                    <g transform="translate(-598 -670) translate(598 670)">
                        <use fill="#000" filter="url(#1m9wnluc6a)" xlink:href="#yna1zczvsb"/>
                        <use fill="#FFF" xlink:href="#yna1zczvsb"/>
                    </g>
                    <text fill="#9D3292" font-family="Lato-Bold, Lato" font-size="14" font-weight="bold" transform="translate(-598 -670) translate(598 670)">
                        <tspan x="16" y="28">Request Time Off</tspan>
                    </text>
                </g>
                <path fill="#009B7C" d="M154 35c6.627 0 12-5.373 12-12s-5.373-12-12-12-12 5.373-12 12 5.373 12 12 12zm-2-12.925h-1.333v1.35H152v-1.35zm.017 2.923h-1.333v1.35h1.333v-1.35zm2.667 0h-1.334v1.35h1.334v-1.35zm2.666 0h-1.333v1.35h1.333v-1.35zm-2.683-2.923h-1.334v1.35h1.334v-1.35zm2.666 0H156v1.35h1.333v-1.35zm1.334-4.725H158V16h-1.333v1.35h-5.334V16H150v1.35h-.667c-.74 0-1.326.607-1.326 1.35L148 28.15c0 .742.593 1.35 1.333 1.35h9.334c.733 0 1.333-.608 1.333-1.35V18.7c0-.742-.6-1.35-1.333-1.35zm0 10.8h-9.334v-7.425h9.334v7.425zM6 0h162c3.314 0 6 2.686 6 6v2H0V6c0-3.314 2.686-6 6-6z" transform="translate(-598 -670) translate(598 670)"/>
            </g>
        </g>
    </g>
</svg>
