<svg xmlns="http://www.w3.org/2000/svg" width="24" height="24" viewBox="0 0 24 24">
    <g fill="none" fill-rule="evenodd">
        <g fill="#FF8100">
            <g>
                <g>
                    <path d="M12 24c6.627 0 12-5.373 12-12S18.627 0 12 0 0 5.373 0 12s5.373 12 12 12zm8.936-9.724L18.14 5.955c-.234-.697-1.091-1.108-1.869-.9l-3.545.95C12.607 5.435 12.048 5 11.375 5 10.617 5 10 5.55 10 6.227H5.875c-.758 0-1.375.55-1.375 1.227v9.205c0 .676.617 1.227 1.375 1.227h3.04c.271.376.736.614 1.259.614.147 0 .293-.02.43-.057l9.326-2.497c.63-.169 1.07-.696 1.07-1.284 0-.131-.021-.261-.064-.386zm-9.561-8.663c.363 0 .653.254.678.572l-.156.042h-1.21c0-.338.309-.614.688-.614zm.688 1.854v.907c0 .17-.155.307-.344.307-.19 0-.344-.137-.344-.307V7.65l.688-.183zm7.472 7.303l-9.361 2.502c-.057 0-.105-.031-.122-.08L7.25 8.837c0-.052.034-.094.09-.108l3.348-.895v.54c0 .508.462.921 1.03.921.57 0 1.032-.413 1.032-.92V7.283l3.951-1.056c.057 0 .105.031.122.08l2.802 8.355c0 .052-.034.094-.09.108z" transform="translate(-634 -169) translate(504 158) translate(130 11)"/>
                </g>
            </g>
        </g>
    </g>
</svg>
