<svg xmlns="http://www.w3.org/2000/svg" width="24" height="24" viewBox="0 0 24 24">
    <g fill="none" fill-rule="evenodd">
        <g>
            <g>
                <g>
                    <path fill="#0060FF" d="M12 24C5.373 24 0 18.627 0 12S5.373 0 12 0s12 5.373 12 12-5.373 12-12 12zm-3.33-6.672l1.159.31 4.217-4.15 3.188.855c.48.129.973-.156 1.102-.637.13-.48-.155-.973-.636-1.102l-3.188-.854-1.578-5.703-1.159-.31.13 5.314-3.188-.854-.481-1.682-.87-.233-.041 2.474-1.201 2.163.87.233 1.257-1.216 3.187.854-2.769 4.538z" transform="translate(-634 -169) translate(504 158) translate(130 11)"/>
                </g>
            </g>
        </g>
    </g>
</svg>
