<svg xmlns="http://www.w3.org/2000/svg" width="24" height="24" viewBox="0 0 24 24">
    <g fill="none" fill-rule="evenodd">
        <g fill="#9D3292">
            <g>
                <g>
                    <path d="M12 24C5.373 24 0 18.627 0 12S5.373 0 12 0s12 5.373 12 12-5.373 12-12 12zm0-19.5c-1.66 0-3 1.34-3 3s1.34 3 3 3 3-1.34 3-3-1.34-3-3-3zm0 15c2.5 0 4.71-1.219 6-3.067-.03-1.895-4.01-2.933-6-2.933-2 0-5.97 1.038-6 2.933 1.29 1.848 3.5 3.067 6 3.067z" transform="translate(-970 -227) translate(840 217) translate(130 10)"/>
                </g>
            </g>
        </g>
    </g>
</svg>
