<?xml version="1.0" encoding="UTF-8"?>
<svg width="24px" height="24px" viewBox="0 0 24 24" version="1.1" xmlns="http://www.w3.org/2000/svg" xmlns:xlink="http://www.w3.org/1999/xlink">
    <!-- Generator: Sketch 56 (81588) - https://sketch.com -->
    <title>Icon/View</title>
    <desc>Created with Sketch.</desc>
    <g id="Icon/View" stroke="none" stroke-width="1" fill="none" fill-rule="evenodd">
        <g id="visibility-24px">
            <polygon id="Path" points="0 0 24 0 24 24 0 24"></polygon>
            <path d="M12,8.45454545 C14.7563636,8.45454545 17.2145455,10.0036364 18.4145455,12.4545455 C17.2145455,14.9054545 14.7563636,16.4545455 12,16.4545455 C9.24363636,16.4545455 6.78545455,14.9054545 5.58545455,12.4545455 C6.78545455,10.0036364 9.24363636,8.45454545 12,8.45454545 L12,8.45454545 Z M12,7 C8.36363636,7 5.25818182,9.26181818 4,12.4545455 C5.25818182,15.6472727 8.36363636,17.9090909 12,17.9090909 C15.6363636,17.9090909 18.7418182,15.6472727 20,12.4545455 C18.7418182,9.26181818 15.6363636,7 12,7 Z M12,10.6363636 C13.0036364,10.6363636 13.8181818,11.4509091 13.8181818,12.4545455 C13.8181818,13.4581818 13.0036364,14.2727273 12,14.2727273 C10.9963636,14.2727273 10.1818182,13.4581818 10.1818182,12.4545455 C10.1818182,11.4509091 10.9963636,10.6363636 12,10.6363636 L12,10.6363636 Z M12,9.18181818 C10.1963636,9.18181818 8.72727273,10.6509091 8.72727273,12.4545455 C8.72727273,14.2581818 10.1963636,15.7272727 12,15.7272727 C13.8036364,15.7272727 15.2727273,14.2581818 15.2727273,12.4545455 C15.2727273,10.6509091 13.8036364,9.18181818 12,9.18181818 Z" id="Shape" fill="#9D3292" fill-rule="nonzero"></path>
        </g>
    </g>
</svg>