<svg xmlns="http://www.w3.org/2000/svg" width="24" height="24" viewBox="0 0 24 24">
    <g fill="none" fill-rule="evenodd">
        <g>
            <g>
                <g>
                    <g>
                        <path d="M0 0L24 0 24 24 0 24z" opacity=".5" transform="translate(-929 -254) translate(168 245) translate(761 9)"/>
                        <path fill="#9D3292" fill-rule="nonzero" d="M12 4c-4.416 0-8 3.584-8 8s3.584 8 8 8 8-3.584 8-8-3.584-8-8-8zM8.056 17.024C8.4 16.304 10.496 15.6 12 15.6s3.608.704 3.944 1.424C14.856 17.888 13.488 18.4 12 18.4s-2.856-.512-3.944-1.376zm9.032-1.16C15.944 14.472 13.168 14 12 14c-1.168 0-3.944.472-5.088 1.864C6.096 14.792 5.6 13.456 5.6 12c0-3.528 2.872-6.4 6.4-6.4 3.528 0 6.4 2.872 6.4 6.4 0 1.456-.496 2.792-1.312 3.864zM12 7.2c-1.552 0-2.8 1.248-2.8 2.8 0 1.552 1.248 2.8 2.8 2.8 1.552 0 2.8-1.248 2.8-2.8 0-1.552-1.248-2.8-2.8-2.8zm0 4c-.664 0-1.2-.536-1.2-1.2 0-.664.536-1.2 1.2-1.2.664 0 1.2.536 1.2 1.2 0 .664-.536 1.2-1.2 1.2z" transform="translate(-929 -254) translate(168 245) translate(761 9)"/>
                    </g>
                </g>
            </g>
        </g>
    </g>
</svg>
