<svg xmlns="http://www.w3.org/2000/svg" width="17" height="16" viewBox="0 0 17 16">
    <defs>
        <linearGradient id="5qx6a6nnxa" x1="50%" x2="50%" y1="0%" y2="100%">
            <stop offset="0%" stop-color="#9D3292"/>
            <stop offset="100%" stop-color="#4435A6"/>
        </linearGradient>
    </defs>
    <g fill="none" fill-rule="evenodd">
        <g>
            <g>
                <g>
                    <g>
                        <g>
                            <g>
                                <g>
                                    <g transform="translate(-638 -644) translate(112 104) translate(24 445) translate(424 92) translate(7.071 3) translate(71.724)">
                                        <ellipse cx="8.082" cy="8" fill="url(#5qx6a6nnxa)" rx="8.082" ry="8"/>
                                        <g>
                                            <path d="M0 0H12.122V12H0z" transform="translate(2.02 2)"/>
                                            <path fill="#FFF" fill-rule="nonzero" d="M9.597 4.335V1.53H8.082v1.377L6.062 1 1.01 5.765h1.516V10H5.05V6.824h2.02V10h2.526V5.765h1.515l-1.515-1.43zm-4.546.37c0-.581.455-1.058 1.01-1.058.556 0 1.01.477 1.01 1.059h-2.02z" transform="translate(2.02 2)"/>
                                        </g>
                                    </g>
                                </g>
                            </g>
                        </g>
                    </g>
                </g>
            </g>
        </g>
    </g>
</svg>
