<?xml version="1.0" encoding="UTF-8"?>
<svg width="16px" height="16px" viewBox="0 0 16 16" version="1.1" xmlns="http://www.w3.org/2000/svg" xmlns:xlink="http://www.w3.org/1999/xlink">
    <!-- Generator: sketchtool 56 (101010) - https://sketch.com -->
    <title>8E01211B-86A2-4AE2-B82A-9FC3A712FDB4</title>
    <desc>Created with sketchtool.</desc>
    <g id="Sistema-Entero" stroke="none" stroke-width="1" fill="none" fill-rule="evenodd">
        <g id="H010-/-Dashboard-/-Calendar" transform="translate(-207.000000, -667.000000)">
            <g id="Group-2" transform="translate(128.000000, 91.000000)">
                <g id="Group-6" transform="translate(24.000000, 225.000000)">
                    <g id="Midday" transform="translate(55.000000, 351.000000)">
                        <g id="Group-7">
                            <circle id="Oval-Copy-11" fill="#FFD300" cx="8" cy="8" r="8"></circle>
                            <g id="wb_sunny-24px-copy" transform="translate(1.142857, 1.142857)">
                                <polygon id="Path" points="0 0 13.7142857 0 13.7142857 13.7142857 0 13.7142857"></polygon>
                                <path d="M4.40727273,3.72915851 L3.56571429,2.88845401 L2.90649351,3.55068493 L3.74337662,4.39138943 L4.40727273,3.72915851 Z M3.11688312,6.38747554 L1.71428571,6.38747554 L1.71428571,7.32681018 L3.11688312,7.32681018 L3.11688312,6.38747554 Z M7.32467532,1.71428571 L6.38961039,1.71428571 L6.38961039,3.09980431 L7.32467532,3.09980431 L7.32467532,1.71428571 L7.32467532,1.71428571 Z M10.8077922,3.55068493 L10.1485714,2.88845401 L9.31168831,3.72915851 L9.97090909,4.39138943 L10.8077922,3.55068493 Z M9.30701299,9.9851272 L10.1438961,10.8305284 L10.8031169,10.1682975 L9.96155844,9.32759295 L9.30701299,9.9851272 Z M10.5974026,6.38747554 L10.5974026,7.32681018 L12,7.32681018 L12,6.38747554 L10.5974026,6.38747554 Z M6.85714286,4.03913894 C5.30961039,4.03913894 4.05194805,5.30254403 4.05194805,6.85714286 C4.05194805,8.41174168 5.30961039,9.67514677 6.85714286,9.67514677 C8.40467532,9.67514677 9.66233766,8.41174168 9.66233766,6.85714286 C9.66233766,5.30254403 8.40467532,4.03913894 6.85714286,4.03913894 Z M6.38961039,12 L7.32467532,12 L7.32467532,10.6144814 L6.38961039,10.6144814 L6.38961039,12 Z M2.90649351,10.1636008 L3.56571429,10.8258317 L4.4025974,9.98043053 L3.74337662,9.31819961 L2.90649351,10.1636008 Z" id="Shape" fill="#FFFFFF" fill-rule="nonzero"></path>
                            </g>
                        </g>
                    </g>
                </g>
            </g>
        </g>
    </g>
</svg>