<?xml version="1.0" encoding="UTF-8"?>
<svg width="16px" height="16px" viewBox="0 0 16 16" version="1.1" xmlns="http://www.w3.org/2000/svg" xmlns:xlink="http://www.w3.org/1999/xlink">
    <!-- Generator: sketchtool 56 (101010) - https://sketch.com -->
    <title>8817A714-F4C7-4AE5-BD17-EEFFADA46A5D</title>
    <desc>Created with sketchtool.</desc>
    <g id="Sistema-Entero" stroke="none" stroke-width="1" fill="none" fill-rule="evenodd">
        <g id="H010-/-Dashboard-/-Calendar" transform="translate(-186.000000, -667.000000)">
            <g id="Group-2" transform="translate(128.000000, 91.000000)">
                <g id="Group-6" transform="translate(24.000000, 225.000000)">
                    <g id="Morning" transform="translate(34.000000, 351.000000)">
                        <g id="Group">
                            <circle id="Oval" fill="#FF9500" cx="8" cy="8" r="8"></circle>
                            <g id="wb_sunny-24px" transform="translate(1.142857, 2.142857)" fill="#FFFFFF">
                                <path d="M3.86285714,2.59428571 L2.83428571,1.57142857 L2.02857143,2.37714286 L3.05142857,3.4 L3.86285714,2.59428571 Z M2.28571429,5.82857143 L0.571428571,5.82857143 L0.571428571,6.97142857 L2.28571429,6.97142857 L2.28571429,5.82857143 Z M7.42857143,0.142857143 L6.28571429,0.142857143 L6.28571429,1.82857143 L7.42857143,1.82857143 L7.42857143,0.142857143 L7.42857143,0.142857143 Z M11.6857143,2.37714286 L10.88,1.57142857 L9.85714286,2.59428571 L10.6628571,3.4 L11.6857143,2.37714286 Z M11.4285714,5.82857143 L11.4285714,6.97142857 L13.1428571,6.97142857 L13.1428571,5.82857143 L11.4285714,5.82857143 Z M6.85714286,2.97142857 C4.96571429,2.97142857 3.42857143,4.50857143 3.42857143,6.4 C3.42857143,6.707315 3.51416652,7.14153594 3.6853567,7.70266284 L5.20596272,5.5394489 L6.85714286,8.38123919 C8.68435933,5.70083972 9.59796757,4.36063998 9.59796757,4.36063998 C8.97010897,3.55691774 7.95442825,2.97142857 6.85714286,2.97142857 Z" id="Shape" fill-rule="nonzero"></path>
                                <polygon id="Path-2" points="2.02857143 11.2285714 5.14312819 6.97142857 6.85714286 9.72895936 10.0049207 5.05516677 12.2857143 11.2285714"></polygon>
                            </g>
                        </g>
                    </g>
                </g>
            </g>
        </g>
    </g>
</svg>