<svg xmlns="http://www.w3.org/2000/svg" width="16" height="16" viewBox="0 0 16 16">
    <defs>
        <linearGradient id="j2i157llia" x1="50%" x2="50%" y1="0%" y2="100%">
            <stop offset="0%" stop-color="#9D3292"/>
            <stop offset="100%" stop-color="#4435A6"/>
        </linearGradient>
    </defs>
    <g fill="none" fill-rule="evenodd">
        <g>
            <g>
                <g transform="translate(-226 -196) translate(136 76) translate(90 120)">
                    <circle cx="8" cy="8" r="8" fill="url(#j2i157llia)"/>
                    <path fill="#FFF" fill-rule="nonzero" d="M5.582 4.056c.148-.124.309-.24.483-.348.174-.108.361-.203.561-.285.2-.082.415-.146.645-.192.23-.046.479-.069.747-.069.376 0 .715.05 1.017.15.302.1.559.243.771.429.212.186.375.41.489.672.114.262.171.553.171.873 0 .308-.042.572-.126.792-.084.22-.191.412-.321.576-.13.164-.272.305-.426.423l-.438.333c-.138.104-.258.206-.36.306-.102.1-.165.212-.189.336l-.168.84H7.166l-.132-.966-.009-.072-.003-.072c0-.176.042-.33.126-.462.084-.132.19-.253.318-.363.128-.11.266-.216.414-.318.148-.102.286-.212.414-.33.128-.118.234-.25.318-.396.084-.146.126-.319.126-.519 0-.24-.079-.431-.237-.573-.158-.142-.375-.213-.651-.213-.212 0-.389.022-.531.066-.142.044-.264.093-.366.147-.102.054-.191.103-.267.147-.076.044-.152.066-.228.066-.172 0-.3-.074-.384-.222l-.492-.756zm1.104 7.002c0-.144.027-.278.081-.402.054-.124.128-.232.222-.324s.205-.165.333-.219c.128-.054.268-.081.42-.081.148 0 .286.027.414.081.128.054.24.127.336.219.096.092.171.2.225.324.054.124.081.258.081.402 0 .144-.027.279-.081.405-.054.126-.129.235-.225.327-.096.092-.208.164-.336.216-.128.052-.266.078-.414.078-.152 0-.292-.026-.42-.078-.128-.052-.239-.124-.333-.216-.094-.092-.168-.201-.222-.327-.054-.126-.081-.261-.081-.405z"/>
                </g>
            </g>
        </g>
    </g>
</svg>
