<svg xmlns="http://www.w3.org/2000/svg" width="15" height="21" viewBox="0 0 15 21">
    <g fill="none" fill-rule="evenodd">
        <g fill="#9D3292" fill-rule="nonzero">
            <g>
                <g>
                    <g>
                        <g>
                            <g>
                                <g>
                                    <g>
                                        <path d="M17.167 6.667H9.833c-1.008 0-1.824.9-1.824 2l-.009 16c0 1.1.816 2 1.824 2h11.01c1.008 0 1.833-.9 1.833-2v-12l-5.5-6zm.61 17.5h-7.333v-2.5h7.334v2.5zm0-5h-7.333v-2.5h7.334v2.5zm-2.444-5v-5l4.89 5h-4.89z" transform="translate(-177 -731) translate(111 82) translate(24 368) translate(0 35) translate(13 201) translate(0 30) translate(16 4) translate(5 5)"/>
                                    </g>
                                </g>
                            </g>
                        </g>
                    </g>
                </g>
            </g>
        </g>
    </g>
</svg>
