<svg xmlns="http://www.w3.org/2000/svg" width="16" height="16" viewBox="0 0 16 16">
    <defs>
        <linearGradient id="9e6z84dq9a" x1="50%" x2="50%" y1="0%" y2="100%">
            <stop offset="0%" stop-color="#9D3292"/>
            <stop offset="100%" stop-color="#4435A6"/>
        </linearGradient>
    </defs>
    <g fill="none" fill-rule="evenodd">
        <g>
            <g>
                <g>
                    <g transform="translate(-488 -749) translate(111 93) translate(24 429) translate(353 227)">
                        <circle cx="8" cy="8" r="8" fill="url(#9e6z84dq9a)"/>
                        <path fill="#FFF" fill-rule="nonzero" d="M8 4c1.107 0 2 .893 2 2s-.893 2-2 2-2-.893-2-2 .893-2 2-2zM8 13c-1.667 0-3.14-.813-4-2.044C4.02 9.692 6.667 9 8 9c1.327 0 3.98.692 4 1.956C11.14 12.187 9.667 13 8 13z"/>
                    </g>
                </g>
            </g>
        </g>
    </g>
</svg>
