<svg xmlns="http://www.w3.org/2000/svg" xmlns:xlink="http://www.w3.org/1999/xlink" width="86" height="22" viewBox="0 0 86 22">
    <defs>
        <filter id="alexmj6wwa" width="123.3%" height="190.9%" x="-11.6%" y="-36.4%" filterUnits="objectBoundingBox">
            <feOffset dy="2" in="SourceAlpha" result="shadowOffsetOuter1"/>
            <feGaussianBlur in="shadowOffsetOuter1" result="shadowBlurOuter1" stdDeviation="3"/>
            <feColorMatrix in="shadowBlurOuter1" values="0 0 0 0 0 0 0 0 0 0 0 0 0 0 0 0 0 0 0.3 0"/>
        </filter>
        <rect id="kp6xrrenrb" width="86" height="22" x="0" y="0" rx="11"/>
    </defs>
    <g fill="none" fill-rule="evenodd">
        <g>
            <g>
                <g>
                    <g transform="translate(-342 -383) translate(168 253) translate(174 130)">
                        <use fill="#000" filter="url(#alexmj6wwa)" xlink:href="#kp6xrrenrb"/>
                        <use fill="#009577" xlink:href="#kp6xrrenrb"/>
                    </g>
                    <g fill="#FFF" font-family="Lato-Bold, Lato" font-size="10" font-weight="bold">
                        <text transform="translate(-342 -383) translate(168 253) translate(174 130) translate(21 4)">
                            <tspan x=".49" y="10">Accept</tspan>
                        </text>
                    </g>
                    <path fill="#FFF" d="M71 19c-4.418 0-8-3.582-8-8s3.582-8 8-8 8 3.582 8 8-3.582 8-8 8zm-1.667-5.667L67 11l-.778.778 3.111 3.11L76 8.223l-.778-.778-5.889 5.89z" transform="translate(-342 -383) translate(168 253) translate(174 130)"/>
                </g>
            </g>
        </g>
    </g>
</svg>
