<svg xmlns="http://www.w3.org/2000/svg" xmlns:xlink="http://www.w3.org/1999/xlink" width="86" height="22" viewBox="0 0 86 22">
    <defs>
        <filter id="8ijukb0xua" width="123.3%" height="190.9%" x="-11.6%" y="-36.4%" filterUnits="objectBoundingBox">
            <feOffset dy="2" in="SourceAlpha" result="shadowOffsetOuter1"/>
            <feGaussianBlur in="shadowOffsetOuter1" result="shadowBlurOuter1" stdDeviation="3"/>
            <feColorMatrix in="shadowBlurOuter1" values="0 0 0 0 0 0 0 0 0 0 0 0 0 0 0 0 0 0 0.3 0"/>
        </filter>
        <rect id="f9m0vd3cib" width="86" height="22" x="0" y="0" rx="11"/>
    </defs>
    <g fill="none" fill-rule="evenodd">
        <g>
            <g>
                <g>
                    <g transform="translate(-240 -383) translate(168 253) translate(72 130)">
                        <use fill="#000" filter="url(#8ijukb0xua)" xlink:href="#f9m0vd3cib"/>
                        <use fill="#D84B4B" xlink:href="#f9m0vd3cib"/>
                    </g>
                    <g fill="#FFF">
                        <text font-family="Lato-Bold, Lato" font-size="10" font-weight="bold" transform="translate(-240 -383) translate(168 253) translate(72 130) translate(18)">
                            <tspan x=".96" y="14">Decline</tspan>
                        </text>
                        <path d="M51 19.314c-4.418 0-8-3.582-8-8 0-4.419 3.582-8 8-8s8 3.581 8 8c0 4.418-3.582 8-8 8zm.67-8.661V6.694h-1.334v3.959h-4.024v1.333h4.024v4.042h1.333v-4.042h3.976v-1.333H51.67z" transform="translate(-240 -383) translate(168 253) translate(72 130) translate(18) rotate(-45 51 11.314)"/>
                    </g>
                </g>
            </g>
        </g>
    </g>
</svg>
