<svg xmlns="http://www.w3.org/2000/svg" width="24" height="24" viewBox="0 0 24 24">
    <defs>
        <linearGradient id="2yc672bh6a" x1="50%" x2="50%" y1="0%" y2="100%">
            <stop offset="0%" stop-color="#9D3292"/>
            <stop offset="100%" stop-color="#4435A6"/>
        </linearGradient>
    </defs>
    <g fill="none" fill-rule="evenodd">
        <g fill="url(#2yc672bh6a)" transform="translate(-915 -325)">
            <g>
                <g>
                    <path d="M12 24C5.373 24 0 18.627 0 12S5.373 0 12 0s12 5.373 12 12-5.373 12-12 12zm-6-8.5V18h2.5l7.372-7.372-2.5-2.5L6 15.5zm11.805-6.805c.26-.26.26-.68 0-.94l-1.56-1.56c-.26-.26-.68-.26-.94 0l-1.22 1.22 2.5 2.5 1.22-1.22z" transform="translate(128 196) translate(787 129)"/>
                </g>
            </g>
        </g>
    </g>
</svg>
